inDegrees=yes
name=ik_appendData_table_roll
DataType=double
version=3
OpenSimVersion=4.5
endheader
time	pelvis_tilt	pelvis_list	pelvis_rotation	pelvis_tx	pelvis_ty	pelvis_tz	hip_flexion_r	hip_adduction_r	hip_rotation_r	knee_angle_r	knee_angle_r_beta	ankle_angle_r	subtalar_angle_r	mtp_angle_r	hip_flexion_l	hip_adduction_l	hip_rotation_l	knee_angle_l	knee_angle_l_beta	ankle_angle_l	subtalar_angle_l	mtp_angle_l	lumbar_extension	lumbar_bending	lumbar_rotation	arm_flex_r	arm_add_r	arm_rot_r	elbow_flex_r	pro_sup_r	wrist_flex_r	wrist_dev_r	arm_flex_l	arm_add_l	arm_rot_l	elbow_flex_l	pro_sup_l	wrist_flex_l	wrist_dev_l
50	0.2437641843037175	89.909269566685	-7.19057427354709	0	0.9399999999999999	0	44.77684711078398	-10.00975651079618	0	59.96737845081935	1.046628197756294	-5.000966868050338	0	0	44.77684711078398	-10.00975651079618	0	59.96737845081935	1.046628197756294	-5.000966868050338	0	0	1.147797556892016	0.1355244609773703	5.802708219097648	0	-13.09623140527991	0	75.63921426759389	44.98156447036039	0	0	-2.187701480281355	-18.15262091847019	0.3880303544173339	4.971798936295475	44.98156447036039	0	0
51	0.2213127522226139	89.90936701646601	-7.184289026263839	0	0.9399999999999999	0	44.77897458045732	-10.00954009568913	0	59.96768818111198	1.046633603569694	-5.000941540464807	0	0	44.77897458045732	-10.00954009568913	0	59.96768818111198	1.046633603569694	-5.000941540464807	0	0	1.135578684917475	0.1442192830471697	5.829560538740435	0	-13.1073281565634	0	75.63312173434504	44.9819162478337	0	0	-3.455903919426834	-22.76008698569756	0.06962198757117881	7.20967569951197	44.9819162478337	0	0
52	0.206909072231702	89.90973294183894	-7.159309736306008	0	0.9399999999999999	0	44.78134200713937	-10.00930300321689	0	59.96803212128027	1.04663960645806	-5.000913950315196	0	0	44.78134200713937	-10.00930300321689	0	59.96803212128027	1.04663960645806	-5.000913950315196	0	0	1.144143088360793	0.1380380622852253	5.820715657106124	0	-13.11972013611889	0	75.6263420299981	44.98230325735013	0	0	-5.953850907804185	-26.71216260736119	-0.6364144783938557	10.362734302279	44.98230325735013	0	0
53	0.1917913161334917	89.91011971141997	-7.148165753649343	0	0.9399999999999999	0	44.78341698737029	-10.00909681048038	0	59.96833366478169	1.046644869384998	-5.000890000240281	0	0	44.78341698737029	-10.00909681048038	0	59.96833366478169	1.046644869384998	-5.000890000240281	0	0	1.142136544745538	0.137035519679651	5.82290921327848	0	-13.13061455594931	0	75.62039982085098	44.98264037027817	0	0	-7.526963010565722	-31.08361173908096	-1.280306005124743	12.69610499107268	44.98264037027817	0	0
54	0.1808901243634679	89.90955605421445	-7.108113118867617	0	0.9399999999999999	0	44.78595421361252	-10.00884844139377	0	59.96870235337906	1.046651304214937	-5.00086129827242	0	0	44.78595421361252	-10.00884844139377	0	59.96870235337906	1.046651304214937	-5.00086129827242	0	0	1.157940030987154	0.1354483939429215	5.788236342255062	0	-13.14398981961874	0	75.6131338638892	44.98304800085801	0	0	-11.21417633215763	-36.1124595408121	-2.836152139964999	16.8899126719557	44.98304800085801	0	0
55	0.1346062475131919	89.91031744851499	-7.095087327530895	0	0.9399999999999999	0	44.7895134311672	-10.00852142066945	0	59.96922649082686	1.046660452139134	-5.000824235820057	0	0	44.7895134311672	-10.00852142066945	0	59.96922649082686	1.046660452139134	-5.000824235820057	0	0	1.140203963049595	0.1338100869901065	5.828272508139247	0	-13.16311012044658	0	75.60294122592759	44.98359300930709	0	0	-15.89281049259612	-41.42287358755764	-5.210497895344257	21.70932884749402	44.98359300930709	0	0
56	0.1349610831871124	89.90983787408553	-7.085770965910319	0	0.9399999999999999	0	44.791573672634	-10.00832508713859	0	59.96952568507325	1.046665674063836	-5.000801711441227	0	0	44.791573672634	-10.00832508713859	0	59.96952568507325	1.046665674063836	-5.000801711441227	0	0	1.151108099631019	0.1410461244475241	5.818214536451157	0	-13.17407031531441	0	75.59704123910625	44.98391718161428	0	0	-19.24628218704731	-45.67518134017899	-7.299863618334089	24.93130474290481	44.98391718161428	0	0
57	0.1454867147748946	89.90976137400341	-7.097734464017892	0	0.9399999999999999	0	44.79255505572186	-10.00823071049341	0	59.96966391042459	1.046668086551327	-5.00079090178321	0	0	44.79255505572186	-10.00823071049341	0	59.96966391042459	1.046668086551327	-5.00079090178321	0	0	1.141320611790078	0.1390547362437789	5.820408078003669	0	-13.1792359438089	0	75.5942308121146	44.98407303976179	0	0	-21.18920421602827	-47.2642752241232	-9.164772178503631	26.36222307818191	44.98407303976179	0	0
